<svg xmlns="http://www.w3.org/2000/svg" width="100" height="100" fill="none" viewBox="0 0 100 100"><circle cx="50" cy="50" r="50" fill="#fff" opacity=".2"></circle><path fill="#fff" stroke="#fff" stroke-width="2" d="M71.192 64.624c.153-.153.24-.365.24-.58 0-.216-.087-.428-.24-.58-.153-.154-.364-.241-.58-.241-.217 0-.428.087-.58.24-.154.153-.241.365-.241.58 0 .216.087.428.24.58.153.154.364.241.58.241.217 0 .429-.087.581-.24zm0 0l-.453-.454m.453.454l-.453-.454m0 0h0zm0 0h0m0 0s0 0 0 0m0 0l-.001.001m0 0h0s0 0 0 0m0 0h0s0 0 0 0m0 0s0 0 0 0m-.125-.126h0v-.001h0m0 .001l.126-.128m-.126.128l-.001-.001m.001.001l-.001-.001m0 0h0l-.002-.002-.125-.125s0 0 0 0c.02-.02.04-.032.058-.04.019-.007.042-.013.069-.013.048 0 .09.018.125.05v.002h.002v.001m-.127.127h0m0 0h0m.127-.127s0 0 0 0l.453-.454-.453.454zm0 0h-.001s0 0 0 0z"></path><mask id="1rjuvm1yea" fill="#fff"><path d="M77.321 75.932l-5.854-2.409v-4.82c0-.593-.48-1.074-1.074-1.074-.593 0-1.074.48-1.074 1.074v3.936l-3.007-1.237V59.989c0-.593-.48-1.074-1.074-1.074-.593 0-1.074.48-1.074 1.074v10.529l-3.007-1.237V57.91h8.162v2.258c0 .594.481 1.074 1.074 1.074.593 0 1.074-.48 1.074-1.074V56.85v-.006V48.885l6.152-10.859c.25-.44.381-.939.381-1.444 0-1.279-.783-2.369-1.994-2.777-1.205-.407-2.481-.018-3.256.989l-1.707 2.104c.005-.04.008-.083.008-.125v-.483c0-3.198-2.602-5.8-5.8-5.8-.45 0-.89.053-1.312.151l-2.743-2.64 3.167-3.167c.307-.308.399-.77.233-1.17-.167-.402-.558-.664-.993-.664h-9.566c-.593 0-1.074.48-1.074 1.074v2.155h-2.456c-.593 0-1.074.481-1.074 1.075v14.77c-.318-.108-.658-.168-1.013-.168h-8.157c.811-.998 1.299-2.269 1.299-3.652V36.96c0-.032-.002-.063-.005-.094.002-.03.005-.062.005-.093v-.483c0-3.198-2.602-5.8-5.8-5.8-3.197 0-5.8 2.602-5.8 5.8v.483c0 .031.003.062.006.093l-.003.042-1.715-2.115c-.774-1.006-2.05-1.394-3.255-.988-1.212.408-1.995 1.498-1.995 2.777 0 .505.132 1.005.381 1.444l6.153 10.86V73.52l-5.868 2.412c-.549.225-.81.853-.585 1.402.17.415.571.666.994.666.136 0 .274-.026.407-.08L50.507 67.22l25.997 10.698c.548.226 1.176-.036 1.402-.585.225-.548-.037-1.176-.585-1.402zm-12.07-43.294c1.813 0 3.321 1.327 3.605 3.06h-1.19c-1.22 0-2.37-.536-3.155-1.473-.209-.248-.512-.384-.824-.384-.123 0-.246.021-.366.065-.425.154-.707.558-.707 1.01 0 .398-.312.72-.71.735l-.249.008c.3-1.714 1.798-3.021 3.597-3.021zm-3.664 5.173l.39-.013c.867-.03 1.63-.434 2.137-1.055 1.033.713 2.267 1.104 3.553 1.104h1.223v.407c0 2.014-1.638 3.652-3.652 3.652-2.013 0-3.651-1.638-3.651-3.652v-.443zm4.44 6.243l-.796 2.558-.796-2.558h1.592zm-5.016-18.906l-2.108 2.109c-.204.204-.318.481-.315.77.003.288.122.563.33.764l2.02 1.943H55.11v-5.586h5.9zm-9.43 10.75h5.985c.593 0 1.074-.481 1.074-1.075v-1.94h1.923c-.698.957-1.11 2.135-1.11 3.407v.501c-.008.055-.014.111-.014.169v1.294c0 1.383.487 2.654 1.298 3.652H52.58c-.35 0-.685.058-1 .164v-6.172h.001zm0-7.52h1.383v3.43c0 .594.48 1.075 1.073 1.075h2.455v.866H51.58v-5.371zm-15.819 4.26c1.798 0 3.297 1.307 3.597 3.021l-.248-.008c-.399-.014-.71-.337-.71-.736 0-.451-.283-.855-.707-1.01-.425-.154-.9-.026-1.19.32-.785.937-1.935 1.474-3.157 1.474h-1.189c.284-1.734 1.792-3.061 3.604-3.061zm-3.651 5.209h1.236c1.286 0 2.52-.391 3.553-1.104.507.621 1.27 1.025 2.136 1.055l.378.013v.443c0 2.014-1.639 3.652-3.652 3.652s-3.651-1.638-3.651-3.652v-.407zm4.447 6.207l-.796 2.558-.796-2.558h1.592zm3.285 25.228l-3.007 1.236v-10.53c0-.593-.48-1.073-1.074-1.073-.593 0-1.074.48-1.074 1.074V71.4l-3.007 1.236V57.912h8.162v11.37zm0-21.038v7.52H31.68l.002-7.162c0-.185-.048-.368-.14-.53L25.25 36.968c-.067-.117-.102-.25-.102-.386 0-.52.407-.698.532-.74.125-.042.557-.147.872.267.006.01.014.018.02.027l5.97 7.362 2.195 7.048c.14.45.556.755 1.026.755s.885-.306 1.025-.755l2.02-6.49h9.612c.551 0 1 .448 1 1 0 .492-.368.917-.856.988l-7.803 1.138c-.527.077-.919.53-.919 1.063zm19.166 8.6V68.397l-8.093-3.33c-.262-.109-.556-.109-.817-.001l-8.108 3.333V56.85v-7.678l6.883-1.004c.193-.028.38-.074.56-.135v9.447c0 .593.48 1.074 1.073 1.074s1.074-.48 1.074-1.074v-9.443c.175.06.357.104.545.131l6.884 1.004-.001 7.664v.007zm1.23-9.663l-7.803-1.138c-.487-.07-.855-.496-.855-.989 0-.551.448-1 1-1h9.605l2.02 6.491c.14.45.555.755 1.025.755.47 0 .885-.306 1.025-.755l2.19-7.035 5.982-7.375.02-.027c.316-.414.747-.31.872-.267.125.042.532.22.532.74 0 .135-.035.269-.102.386l-6.292 11.105c-.091.162-.14.345-.14.53l.002 7.161h-8.163v-7.519c.001-.533-.39-.986-.918-1.063z"></path></mask><path fill="#fff" stroke="#fff" stroke-width="4" d="M77.321 75.932l-5.854-2.409v-4.82c0-.593-.48-1.074-1.074-1.074-.593 0-1.074.48-1.074 1.074v3.936l-3.007-1.237V59.989c0-.593-.48-1.074-1.074-1.074-.593 0-1.074.48-1.074 1.074v10.529l-3.007-1.237V57.91h8.162v2.258c0 .594.481 1.074 1.074 1.074.593 0 1.074-.48 1.074-1.074V56.85v-.006-.006s0 0 0 0v0-7.953l6.152-10.859c.25-.44.381-.939.381-1.444 0-1.279-.783-2.369-1.994-2.777-1.205-.407-2.481-.018-3.256.989l-1.707 2.104c.005-.04.008-.083.008-.125v-.483c0-3.198-2.602-5.8-5.8-5.8-.45 0-.89.053-1.312.151l-2.743-2.64 3.167-3.167c.307-.308.399-.77.233-1.17-.167-.402-.558-.664-.993-.664h-9.566c-.593 0-1.074.48-1.074 1.074v2.155h-2.456c-.593 0-1.074.481-1.074 1.075v14.77c-.318-.108-.658-.168-1.013-.168h-8.157c.811-.998 1.299-2.269 1.299-3.652V36.96c0-.032-.002-.063-.005-.094.002-.03.005-.062.005-.093v-.483c0-3.198-2.602-5.8-5.8-5.8-3.197 0-5.8 2.602-5.8 5.8v.483c0 .031.003.062.006.093l-.003.042-1.715-2.115c-.774-1.006-2.05-1.394-3.255-.988-1.212.408-1.995 1.498-1.995 2.777 0 .505.132 1.005.381 1.444l6.153 10.86V73.52l-5.868 2.412c-.549.225-.81.853-.585 1.402.17.415.571.666.994.666.136 0 .274-.026.407-.08L50.507 67.22l25.997 10.698c.548.226 1.176-.036 1.402-.585.225-.548-.037-1.176-.585-1.402zm-12.07-43.294c1.813 0 3.321 1.327 3.605 3.06h-1.19c-1.22 0-2.37-.536-3.155-1.473-.209-.248-.512-.384-.824-.384-.123 0-.246.021-.366.065-.425.154-.707.558-.707 1.01 0 .398-.312.72-.71.735l-.249.008c.3-1.714 1.798-3.021 3.597-3.021zm-3.664 5.173l.39-.013c.867-.03 1.63-.434 2.137-1.055 1.033.713 2.267 1.104 3.553 1.104h1.223v.407c0 2.014-1.638 3.652-3.652 3.652-2.013 0-3.651-1.638-3.651-3.652v-.443h0zm4.44 6.243l-.796 2.558-.796-2.558h1.592zm-5.016-18.906l-2.108 2.109c-.204.204-.318.481-.315.77.003.288.122.563.33.764l2.02 1.943H55.11v-5.586h5.9zm-9.43 10.75h5.985c.593 0 1.074-.481 1.074-1.075v-1.94h1.923c-.698.957-1.11 2.135-1.11 3.407v.501c-.008.055-.014.111-.014.169v1.294c0 1.383.487 2.654 1.298 3.652H52.58c-.35 0-.685.058-1 .164v-6.172h.001zm0-7.52h1.383v3.43c0 .594.48 1.075 1.073 1.075h2.455v.866H51.58v-5.371zm-15.819 4.26c1.798 0 3.297 1.307 3.597 3.021l-.248-.008c-.399-.014-.71-.337-.71-.736 0-.451-.283-.855-.707-1.01-.425-.154-.9-.026-1.19.32-.785.937-1.935 1.474-3.157 1.474h-1.189c.284-1.734 1.792-3.061 3.604-3.061zm-3.651 5.209h1.236c1.286 0 2.52-.391 3.553-1.104.507.621 1.27 1.025 2.136 1.055l.378.013v.443c0 2.014-1.639 3.652-3.652 3.652s-3.651-1.638-3.651-3.652v-.407h0zm4.447 6.207l-.796 2.558-.796-2.558h1.592zm3.285 25.228l-3.007 1.236v-10.53c0-.593-.48-1.073-1.074-1.073-.593 0-1.074.48-1.074 1.074V71.4l-3.007 1.236V57.912h8.162v11.37h0zm0-21.038v7.52H31.68l.002-7.162c0-.185-.048-.368-.14-.53L25.25 36.968c-.067-.117-.102-.25-.102-.386 0-.52.407-.698.532-.74.125-.042.557-.147.872.267.006.01.014.018.02.027l5.97 7.362 2.195 7.048c.14.45.556.755 1.026.755s.885-.306 1.025-.755l2.02-6.49h9.612c.551 0 1 .448 1 1 0 .492-.368.917-.856.988l-7.803 1.138c-.527.077-.919.53-.919 1.063zm19.166 8.6V68.397l-8.093-3.33c-.262-.109-.556-.109-.817-.001l-8.108 3.333V56.85v-7.678l6.883-1.004c.193-.028.38-.074.56-.135v9.447c0 .593.48 1.074 1.073 1.074s1.074-.48 1.074-1.074v-9.443c.175.06.357.104.545.131l6.884 1.004-.001 7.664v.007zm1.23-9.663l-7.803-1.138c-.487-.07-.855-.496-.855-.989 0-.551.448-1 1-1h9.605l2.02 6.491c.14.45.555.755 1.025.755.47 0 .885-.306 1.025-.755l2.19-7.035 5.982-7.375.02-.027c.316-.414.747-.31.872-.267.125.042.532.22.532.74 0 .135-.035.269-.102.386l-6.292 11.105c-.091.162-.14.345-.14.53l.002 7.161h-8.163v-7.519c.001-.533-.39-.986-.918-1.063z" mask="url(#1rjuvm1yea)"></path><path fill="#fff" stroke="#fff" stroke-width="2" d="M51.036 61.455h.001s0 0 0 0v.001c.02.02.032.04.04.058.008.02.013.043.013.069 0 .025-.005.048-.013.068-.008.019-.02.039-.04.058v.001l-.002.001c-.034.033-.076.05-.124.05-.027 0-.05-.005-.07-.013-.018-.007-.038-.02-.057-.038 0 0 0 0 0 0s0 0 0 0 0 0 0 0l-.001-.002c-.019-.019-.03-.038-.038-.056-.008-.02-.013-.042-.013-.07 0-.026.005-.05.013-.068.008-.019.02-.038.038-.057l.001-.001c.019-.02.039-.032.058-.04.019-.007.041-.012.069-.012.027 0 .05.005.069.013.018.007.037.02.056.037 0 0 0 0 0 0zm0 .256h0s0 0 0 0zm0-.256h.001zm-.126.128h0z"></path></svg>