<svg xmlns="http://www.w3.org/2000/svg" width="99" height="100" viewBox="0 0 99 100" fill="none"><ellipse opacity="0.2" cx="49.5" cy="50" rx="49.5" ry="50" fill="white"></ellipse><g clip-path="url(#clip0)"><path d="M65.163 75C65.7097 75 66.1531 74.5566 66.1531 74.0099V70.7207C66.1531 69.4494 64.1729 69.4476 64.1729 70.7207V73.0198H60.3044V56.8625C60.3044 56.3158 59.861 55.8724 59.3143 55.8724H53.9444C52.6732 55.8724 52.6714 57.8526 53.9444 57.8526H58.3242V73.0197H41.6764V57.8526H46.0507C47.322 57.8526 47.3238 55.8724 46.0507 55.8724H40.6863C40.1396 55.8724 39.6962 56.3158 39.6962 56.8625V73.0197H35.8277V52.4218H64.173V62.7168C64.173 63.9881 66.1532 63.9898 66.1532 62.7168V52.404C68.0689 52.2123 69.4094 50.5165 69.3418 48.6321C69.3418 46.8058 67.9532 45.2981 66.1764 45.1085V42.0876C66.1764 40.5026 65.6114 38.948 64.6088 37.7292C66.1497 35.2472 64.2929 31.9424 61.3847 31.9424C59.2934 31.9424 57.592 33.6439 57.592 35.7351C57.592 38.5323 60.6738 40.4059 63.1577 39.0863C63.8223 39.9376 64.1962 41.0022 64.1962 42.0877V45.0881H59.2804C58.9524 41.6458 56.745 38.7437 53.6985 37.4219C55.5109 36.202 56.7057 34.1318 56.7057 31.7876C56.7058 28.0449 53.661 25 49.9184 25C46.1758 25 43.131 28.0449 43.131 31.7875C43.131 34.1599 44.3554 36.2506 46.2046 37.4645C43.2085 38.8053 41.0446 41.6824 40.7201 45.088H35.8276V42.0876C35.8276 41.0021 36.2014 39.9375 36.8661 39.0862C39.3493 40.4054 42.4318 38.533 42.4318 35.735C42.4318 33.6438 40.7304 31.9423 38.6391 31.9423C35.7318 31.9423 33.8737 35.2464 35.4149 37.7291C34.4124 38.948 33.8473 40.5026 33.8473 42.0875V45.1057C31.9316 45.2974 30.5911 46.9932 30.6587 48.8776C30.6587 50.7119 32.0594 52.225 33.8473 52.4039V74.0098C33.8473 74.5565 34.2907 74.9999 34.8374 74.9999H65.163V75ZM61.3847 37.5474C60.3852 37.5474 59.5721 36.7344 59.5721 35.7349C59.5721 34.7354 60.3852 33.9224 61.3847 33.9224C62.3841 33.9224 63.1972 34.7354 63.1972 35.7349C63.1972 36.7344 62.3841 37.5474 61.3847 37.5474ZM38.6392 33.9225C39.6387 33.9225 40.4518 34.7355 40.4518 35.735C40.4518 36.7345 39.6387 37.5475 38.6392 37.5475C37.6397 37.5475 36.8267 36.7345 36.8267 35.735C36.8267 34.7355 37.6397 33.9225 38.6392 33.9225ZM45.1112 31.7875C45.1112 29.1367 47.2676 26.9802 49.9184 26.9802C52.5691 26.9802 54.7257 29.1366 54.7257 31.7875C54.7257 34.4381 52.5692 36.5947 49.9184 36.5947C47.2676 36.5946 45.1112 34.4381 45.1112 31.7875ZM56.3135 42.2324C56.8232 43.0878 57.164 44.055 57.2894 45.0879H42.7112C42.8283 44.1238 43.133 43.2169 43.5875 42.4048C44.8794 40.0967 47.3547 38.7036 49.9998 38.7036H50.004C52.5774 38.7036 54.9962 40.0217 56.3135 42.2324ZM34.2029 50.4416C32.1644 50.4416 32.127 47.0681 34.2029 47.0681H65.7976C67.8732 47.0681 67.8368 50.4416 65.7976 50.4416H34.2029Z" fill="white"></path><path d="M50.8231 56.3112C50.5214 55.8631 49.9001 55.7394 49.4499 56.0379C48.9998 56.3364 48.8792 56.962 49.1766 57.4101C49.4749 57.8595 50.1006 57.9832 50.5489 57.6844C50.997 57.3857 51.122 56.759 50.8231 56.3112Z" fill="white"></path><path d="M66.0996 66.3126C65.8951 65.8134 65.3036 65.5713 64.8065 65.777C64.3078 65.9834 64.0644 66.5712 64.2709 67.07C64.477 67.5679 65.0659 67.8125 65.564 67.6057C66.0613 67.399 66.3072 66.8105 66.0996 66.3126Z" fill="white"></path></g><defs><clipPath id="clip0"><rect width="50" height="50" fill="white" transform="translate(25 25)"></rect></clipPath></defs></svg>