<svg xmlns="http://www.w3.org/2000/svg" width="99" height="100" viewBox="0 0 99 100" fill="none"><ellipse opacity="0.2" cx="49.5" cy="50" rx="49.5" ry="50" fill="white"></ellipse><path d="M67.7098 43.2514L66.7292 44.2327C66.5971 44.3637 66.466 44.4781 66.3355 44.5834C67.4645 47.1122 68.0986 49.9096 68.0986 52.8535C68.0986 64.0757 58.9681 73.2056 47.7454 73.2056C36.5219 73.2056 27.3915 64.0757 27.3915 52.8535C27.3915 41.6323 36.522 32.5032 47.7454 32.5032C50.0831 32.5032 52.3272 32.9046 54.4202 33.6327V33.632C54.6196 33.3152 54.8524 32.9997 55.1711 32.6787L55.6748 32.1743C53.212 31.2294 50.5403 30.7065 47.7459 30.7065C35.5145 30.7073 25.5957 40.6231 25.5957 52.8528C25.5957 65.0843 35.5145 75.0001 47.7455 75.0001C59.9782 75.0001 69.8946 65.0842 69.8946 52.8528C69.8945 49.4135 69.1104 46.1559 67.7098 43.2514Z" fill="white"></path><path d="M61.3211 45.9577H59.3079C60.332 47.8304 60.915 49.9764 60.915 52.2563C60.915 59.5176 55.0071 65.425 47.7456 65.425C40.4837 65.425 34.5758 59.5175 34.5758 52.2563C34.5757 44.9959 40.4836 39.0887 47.7456 39.0887C49.7868 39.0887 51.722 39.5555 53.4481 40.3886V38.4213C51.6903 37.6961 49.7648 37.293 47.7456 37.293C39.4798 37.293 32.7793 43.9929 32.7793 52.2564C32.7793 60.5199 39.4797 67.221 47.7456 67.221C56.0097 67.221 62.7114 60.5199 62.7114 52.2564C62.7115 50.0055 62.2107 47.8727 61.3211 45.9577Z" fill="white"></path><path d="M74.2655 32.4018C74.1255 32.1302 73.8993 31.9404 73.6755 31.8259C73.4498 31.7104 73.2193 31.6562 72.9836 31.6319L68.7088 31.2055C68.6218 31.1989 68.4849 31.1388 68.3778 31.0293C68.2682 30.9221 68.2081 30.7852 68.2021 30.6983L67.774 26.4219C67.7406 26.1093 67.6579 25.7984 67.44 25.5091C67.3316 25.3661 67.1833 25.2328 67.0041 25.1399C66.8253 25.0471 66.6194 24.9994 66.4253 25C66.1758 25.0007 65.9543 25.0708 65.768 25.1667C65.5816 25.2644 65.4233 25.3894 65.2803 25.5316L56.6525 34.1595C56.3018 34.515 56.0523 34.9425 55.8605 35.3997C55.6736 35.8588 55.5467 36.3382 55.5431 36.8377V41.765C55.5443 42.1026 55.6313 42.417 55.7736 42.6993L52.0611 46.5225C50.8582 45.6163 49.368 45.0714 47.7459 45.0714C43.7778 45.0714 40.5625 48.2879 40.5625 52.2542C40.5625 56.2204 43.7778 59.4369 47.7459 59.4369C51.7121 59.4369 54.9293 56.2204 54.9293 52.2542C54.9293 50.5572 54.3369 49.0001 53.3521 47.7706L57.1974 43.8115C57.3404 43.8418 57.4868 43.8597 57.6392 43.8603H62.5694C63.0689 43.8568 63.5483 43.7305 64.0067 43.5435C64.4646 43.3511 64.892 43.1017 65.2481 42.751L73.8742 34.1255C74.0165 33.9825 74.1409 33.8242 74.2386 33.6373C74.3345 33.4509 74.4053 33.2295 74.4053 32.9806C74.4072 32.787 74.3595 32.5805 74.2655 32.4018ZM47.7459 57.6419C44.7747 57.6419 42.3577 55.2256 42.3577 52.2548C42.3577 49.2848 44.7746 46.8678 47.7459 46.8678C48.8791 46.8678 49.9306 47.2215 50.7992 47.8216L47.1016 51.63C46.7562 51.9855 46.7646 52.5542 47.1201 52.8995C47.4756 53.2449 48.0448 53.2365 48.3902 52.8809L52.0856 49.076C52.741 49.9681 53.1334 51.0649 53.1334 52.2547C53.1334 55.2256 50.7165 57.6419 47.7459 57.6419ZM57.3402 41.0881V36.8385C57.3367 36.6801 57.4015 36.3699 57.5212 36.0876C57.635 35.8042 57.8088 35.5392 57.9238 35.4296L66.0586 27.2954L66.4166 30.8781C66.4416 31.1193 66.5106 31.3426 66.6023 31.5516L57.3402 41.0881ZM63.9787 41.4823C63.8679 41.5966 63.604 41.7699 63.3206 41.8848C63.0384 42.0045 62.7283 42.0694 62.5698 42.0659H58.8935L67.8781 32.814C68.0817 32.901 68.2966 32.967 68.5306 32.992L72.1116 33.3492L63.9787 41.4823Z" fill="white"></path></svg>